<svg width="24" height="24" viewBox="0 0 24 24" fill="none" xmlns="http://www.w3.org/2000/svg">
    <path d="M12 10.5C13.6569 10.5 15 9.15685 15 7.5C15 5.84315 13.6569 4.5 12 4.5C10.3431 4.5 9 5.84315 9 7.5C9 9.15685 10.3431 10.5 12 10.5Z" stroke="#9CA3AF" stroke-width="1.5"/>
    <path d="M7.5 16.125C8.94975 16.125 10.125 14.9497 10.125 13.5C10.125 12.0503 8.94975 10.875 7.5 10.875C6.05025 10.875 4.875 12.0503 4.875 13.5C4.875 14.9497 6.05025 16.125 7.5 16.125Z" stroke="#9CA3AF" stroke-width="1.5"/>
    <path d="M16.5 16.125C17.9497 16.125 19.125 14.9497 19.125 13.5C19.125 12.0503 17.9497 10.875 16.5 10.875C15.0503 10.875 13.875 12.0503 13.875 13.5C13.875 14.9497 15.0503 16.125 16.5 16.125Z" stroke="#9CA3AF" stroke-width="1.5"/>
    <path d="M5.25 18.75C6.75 16.5 9.75 16.5 11.625 18.75" stroke="#9CA3AF" stroke-width="1.5" stroke-linecap="round"/>
    <path d="M12.375 18.75C14.625 16.5 18.375 16.5 20.25 18.75" stroke="#9CA3AF" stroke-width="1.5" stroke-linecap="round"/>
</svg>
