<svg width="25" height="24" viewBox="0 0 25 24" fill="none" xmlns="http://www.w3.org/2000/svg">
    <g clip-path="url(#clip0_54_660)">
        <path d="M12.7156 0.886719C12.7499 2.31622 12.4905 3.73818 11.9521 5.07121C11.4137 6.40424 10.607 7.62213 9.57807 8.65521C8.54917 9.68828 7.31831 10.5163 5.95596 11.0917C4.59361 11.6671 3.12652 11.9787 1.63867 12.0086" stroke="#00428A" stroke-width="1.77333" stroke-miterlimit="10" stroke-linecap="round"/>
        <path d="M12.7159 0.886719C12.6816 2.31622 12.941 3.73818 13.4794 5.07121C14.0178 6.40424 14.8245 7.62213 15.8534 8.65521C16.8823 9.68828 18.1132 10.5163 19.4755 11.0917C20.8379 11.6671 22.305 11.9787 23.7928 12.0086" stroke="#00428A" stroke-width="1.77333" stroke-miterlimit="10" stroke-linecap="round"/>
        <path d="M12.7156 23.1307C12.7499 21.7012 12.4905 20.2793 11.9521 18.9462C11.4137 17.6132 10.607 16.3953 9.57807 15.3622C8.54917 14.3292 7.31831 13.5012 5.95596 12.9258C4.59361 12.3503 3.12652 12.0387 1.63867 12.0088" stroke="#00428A" stroke-width="1.77333" stroke-miterlimit="10" stroke-linecap="round"/>
        <path d="M12.7159 23.1307C12.6816 21.7012 12.941 20.2793 13.4794 18.9462C14.0178 17.6132 14.8245 16.3953 15.8534 15.3622C16.8823 14.3292 18.1132 13.5012 19.4755 12.9258C20.8379 12.3503 22.305 12.0387 23.7928 12.0088" stroke="#00428A" stroke-width="1.77333" stroke-miterlimit="10" stroke-linecap="round"/>
    </g>
    <defs>
        <clipPath id="clip0_54_660">
            <rect width="24" height="24" fill="white" transform="translate(0.71582)"/>
        </clipPath>
    </defs>
</svg>
