<svg width="20" height="20" viewBox="0 0 20 20" fill="none" xmlns="http://www.w3.org/2000/svg">
    <g clip-path="url(#clip0_659_4570)">
        <path d="M19.0027 17.2625H5.62881C5.49776 17.2625 5.36799 17.2367 5.24691 17.1865C5.12584 17.1364 5.01582 17.0629 4.92315 16.9702C4.83048 16.8775 4.75698 16.7675 4.70682 16.6465C4.65667 16.5254 4.63086 16.3956 4.63086 16.2646C4.63086 16.1335 4.65667 16.0037 4.70682 15.8827C4.75698 15.7616 4.83048 15.6516 4.92315 15.5589C5.01582 15.4662 5.12584 15.3927 5.24691 15.3426C5.36799 15.2924 5.49776 15.2666 5.62881 15.2666H19.0024C19.2671 15.2666 19.5209 15.3717 19.7081 15.5588C19.8953 15.7459 20.0005 15.9997 20.0005 16.2644C20.0006 16.5291 19.8955 16.7829 19.7083 16.9701C19.5212 17.1573 19.2674 17.2625 19.0027 17.2625ZM19.0027 10.9983H5.62881C5.36414 10.9983 5.11031 10.8932 4.92315 10.7061C4.736 10.5189 4.63086 10.2651 4.63086 10.0004C4.63086 9.73572 4.736 9.48189 4.92315 9.29473C5.11031 9.10758 5.36414 9.00244 5.62881 9.00244H19.0024C19.2671 9.0024 19.5209 9.1075 19.7081 9.29462C19.8953 9.48174 20.0005 9.73555 20.0005 10.0002C20.0006 10.2649 19.8955 10.5188 19.7083 10.7059C19.5212 10.8931 19.2674 10.9983 19.0027 10.9983ZM19.0027 4.73419H5.62881C5.49776 4.73419 5.36799 4.70838 5.24691 4.65823C5.12584 4.60807 5.01582 4.53456 4.92315 4.4419C4.83048 4.34923 4.75698 4.23921 4.70682 4.11814C4.65667 3.99706 4.63086 3.86729 4.63086 3.73624C4.63086 3.60518 4.65667 3.47541 4.70682 3.35433C4.75698 3.23326 4.83048 3.12324 4.92315 3.03058C5.01582 2.93791 5.12584 2.8644 5.24691 2.81425C5.36799 2.76409 5.49776 2.73828 5.62881 2.73828H19.0024C19.2671 2.73824 19.5209 2.84334 19.7081 3.03046C19.8953 3.21758 20.0005 3.4714 20.0005 3.73607C20.0006 4.00074 19.8955 4.25459 19.7083 4.44178C19.5212 4.62896 19.2674 4.73415 19.0027 4.73419Z" fill="#00428A"/>
        <path d="M1.34025 5.15316C2.08045 5.15316 2.6805 4.55311 2.6805 3.81291C2.6805 3.07271 2.08045 2.47266 1.34025 2.47266C0.600051 2.47266 0 3.07271 0 3.81291C0 4.55311 0.600051 5.15316 1.34025 5.15316Z" fill="#00428A"/>
        <path d="M1.34025 11.3407C2.08045 11.3407 2.6805 10.7406 2.6805 10.0004C2.6805 9.26021 2.08045 8.66016 1.34025 8.66016C0.600051 8.66016 0 9.26021 0 10.0004C0 10.7406 0.600051 11.3407 1.34025 11.3407Z" fill="#00428A"/>
        <path d="M1.34025 17.5272C2.08045 17.5272 2.6805 16.9271 2.6805 16.1869C2.6805 15.4467 2.08045 14.8467 1.34025 14.8467C0.600051 14.8467 0 15.4467 0 16.1869C0 16.9271 0.600051 17.5272 1.34025 17.5272Z" fill="#00428A"/>
    </g>
    <defs>
        <clipPath id="clip0_659_4570">
            <rect width="20" height="20" fill="white"/>
        </clipPath>
    </defs>
</svg>
