<svg width="29" height="28" viewBox="0 0 29 28" fill="none" xmlns="http://www.w3.org/2000/svg">
    <g clip-path="url(#clip0_31_665)">
        <mask id="mask0_31_665" style="mask-type:luminance" maskUnits="userSpaceOnUse" x="0" y="0" width="29" height="28">
            <path d="M27.983 11.4546H14.9375V16.8636H22.4466C21.7466 20.3 18.8193 22.2727 14.9375 22.2727C10.3557 22.2727 6.66477 18.5818 6.66477 14C6.66477 9.41819 10.3557 5.72728 14.9375 5.72728C16.9102 5.72728 18.692 6.42728 20.092 7.57273L24.1648 3.5C21.683 1.33636 18.5011 0 14.9375 0C7.17387 0 0.9375 6.23637 0.9375 14C0.9375 21.7636 7.17387 28 14.9375 28C21.9375 28 28.3011 22.9091 28.3011 14C28.3011 13.1727 28.1739 12.2818 27.983 11.4546Z" fill="white"/>
        </mask>
        <g mask="url(#mask0_31_665)">
            <path d="M-0.334961 22.2725V5.72705L10.4832 13.9998L-0.334961 22.2725Z" fill="#FBBC05"/>
        </g>
        <mask id="mask1_31_665" style="mask-type:luminance" maskUnits="userSpaceOnUse" x="0" y="0" width="29" height="28">
            <path d="M27.983 11.4546H14.9375V16.8636H22.4466C21.7466 20.3 18.8193 22.2727 14.9375 22.2727C10.3557 22.2727 6.66477 18.5818 6.66477 14C6.66477 9.41819 10.3557 5.72728 14.9375 5.72728C16.9102 5.72728 18.692 6.42728 20.092 7.57273L24.1648 3.5C21.683 1.33636 18.5011 0 14.9375 0C7.17387 0 0.9375 6.23637 0.9375 14C0.9375 21.7636 7.17387 28 14.9375 28C21.9375 28 28.3011 22.9091 28.3011 14C28.3011 13.1727 28.1739 12.2818 27.983 11.4546Z" fill="white"/>
        </mask>
        <g mask="url(#mask1_31_665)">
            <path d="M-0.334961 5.72705L10.4832 13.9998L14.9378 10.118L30.2105 7.63614V-1.27295H-0.334961V5.72705Z" fill="#EA4335"/>
        </g>
        <mask id="mask2_31_665" style="mask-type:luminance" maskUnits="userSpaceOnUse" x="0" y="0" width="29" height="28">
            <path d="M27.983 11.4546H14.9375V16.8636H22.4466C21.7466 20.3 18.8193 22.2727 14.9375 22.2727C10.3557 22.2727 6.66477 18.5818 6.66477 14C6.66477 9.41819 10.3557 5.72728 14.9375 5.72728C16.9102 5.72728 18.692 6.42728 20.092 7.57273L24.1648 3.5C21.683 1.33636 18.5011 0 14.9375 0C7.17387 0 0.9375 6.23637 0.9375 14C0.9375 21.7636 7.17387 28 14.9375 28C21.9375 28 28.3011 22.9091 28.3011 14C28.3011 13.1727 28.1739 12.2818 27.983 11.4546Z" fill="white"/>
        </mask>
        <g mask="url(#mask2_31_665)">
            <path d="M-0.334961 22.2725L18.756 7.63614L23.7832 8.27251L30.2105 -1.27295V29.2725H-0.334961V22.2725Z" fill="#34A853"/>
        </g>
        <mask id="mask3_31_665" style="mask-type:luminance" maskUnits="userSpaceOnUse" x="0" y="0" width="29" height="28">
            <path d="M27.983 11.4546H14.9375V16.8636H22.4466C21.7466 20.3 18.8193 22.2727 14.9375 22.2727C10.3557 22.2727 6.66477 18.5818 6.66477 14C6.66477 9.41819 10.3557 5.72728 14.9375 5.72728C16.9102 5.72728 18.692 6.42728 20.092 7.57273L24.1648 3.5C21.683 1.33636 18.5011 0 14.9375 0C7.17387 0 0.9375 6.23637 0.9375 14C0.9375 21.7636 7.17387 28 14.9375 28C21.9375 28 28.3011 22.9091 28.3011 14C28.3011 13.1727 28.1739 12.2818 27.983 11.4546Z" fill="white"/>
        </mask>
        <g mask="url(#mask3_31_665)">
            <path d="M30.2102 29.2725L10.483 13.9998L7.9375 12.0907L30.2102 5.72705V29.2725Z" fill="#4285F4"/>
        </g>
    </g>
    <defs>
        <clipPath id="clip0_31_665">
            <rect width="28" height="28" fill="white" transform="translate(0.5)"/>
        </clipPath>
    </defs>
</svg>
