<svg width="20" height="20" viewBox="0 0 20 20" fill="none" xmlns="http://www.w3.org/2000/svg">
    <path d="M0.833984 16.6667V15.8333C0.833984 12.6117 3.44566 10 6.66732 10V10C9.88898 10 12.5007 12.6117 12.5007 15.8333V16.6667" stroke="#00428A" stroke-width="1.25" stroke-linecap="round"/>
    <path d="M10.834 11.6667V11.6667C10.834 9.36548 12.6995 7.5 15.0007 7.5V7.5C17.3018 7.5 19.1673 9.36548 19.1673 11.6667V12.0833" stroke="#00428A" stroke-width="1.25" stroke-linecap="round"/>
    <path d="M6.66732 9.99967C8.50827 9.99967 10.0007 8.50729 10.0007 6.66634C10.0007 4.82539 8.50827 3.33301 6.66732 3.33301C4.82637 3.33301 3.33398 4.82539 3.33398 6.66634C3.33398 8.50729 4.82637 9.99967 6.66732 9.99967Z" stroke="#00428A" stroke-width="1.25" stroke-linecap="round" stroke-linejoin="round"/>
    <path d="M15 7.5C16.3807 7.5 17.5 6.38071 17.5 5C17.5 3.61929 16.3807 2.5 15 2.5C13.6193 2.5 12.5 3.61929 12.5 5C12.5 6.38071 13.6193 7.5 15 7.5Z" stroke="#00428A" stroke-width="1.25" stroke-linecap="round" stroke-linejoin="round"/>
</svg>
