<svg width="25" height="24" viewBox="0 0 25 24" fill="none" xmlns="http://www.w3.org/2000/svg">
    <path d="M18.8494 11C19.4313 16.3755 21.7158 18 21.7158 18H3.71582C3.71582 18 6.71582 15.8667 6.71582 8.4C6.71582 6.70261 7.34796 5.07475 8.47318 3.87452C9.5984 2.67428 11.1245 2 12.7158 2C13.0531 2 13.3875 2.0303 13.7158 2.08949" stroke="#4B5563" stroke-width="1.5" stroke-linecap="round" stroke-linejoin="round"/>
    <path d="M19.7158 8C21.3727 8 22.7158 6.65685 22.7158 5C22.7158 3.34315 21.3727 2 19.7158 2C18.059 2 16.7158 3.34315 16.7158 5C16.7158 6.65685 18.059 8 19.7158 8Z" fill="#00428A"/>
    <path d="M14.4463 21C14.2705 21.3031 14.0182 21.5547 13.7146 21.7295C13.4109 21.9044 13.0667 21.9965 12.7163 21.9965C12.3659 21.9965 12.0217 21.9044 11.7181 21.7295C11.4145 21.5547 11.1621 21.3031 10.9863 21" stroke="#4B5563" stroke-width="1.5" stroke-linecap="round" stroke-linejoin="round"/>
</svg>
