<svg width="16" height="16" viewBox="0 0 16 16" fill="none" xmlns="http://www.w3.org/2000/svg">
    <g clip-path="url(#clip0_210_1733)">
        <path fill-rule="evenodd" clip-rule="evenodd" d="M12.3596 3.6372C9.95431 1.23053 6.04564 1.23053 3.63964 3.6372C1.75631 5.5212 1.34631 8.3132 2.40431 10.5979C2.40784 10.6056 2.41118 10.6133 2.41431 10.6212C2.47564 10.7745 2.47431 10.9472 2.47164 11.0452C2.46627 11.1816 2.45515 11.3177 2.43831 11.4532C2.42164 11.5892 2.40164 11.7399 2.38164 11.8919L2.37697 11.9239C2.35497 12.0892 2.33231 12.2585 2.31231 12.4285C2.27231 12.7725 2.24764 13.0945 2.25897 13.3519C2.26431 13.4799 2.27831 13.5752 2.29631 13.6405C2.30231 13.6625 2.30764 13.6772 2.31164 13.6872C2.32685 13.6933 2.34244 13.6984 2.35831 13.7025C2.42364 13.7205 2.51831 13.7345 2.64697 13.7399C2.90431 13.7512 3.22631 13.7265 3.57031 13.6865C3.74031 13.6665 3.91031 13.6439 4.07497 13.6219L4.10697 13.6179C4.25897 13.5972 4.40897 13.5772 4.54564 13.5612C4.68964 13.5445 4.83097 13.5305 4.95364 13.5279C5.05164 13.5245 5.22431 13.5232 5.37697 13.5845L5.40031 13.5945C7.68564 14.6519 10.477 14.2432 12.3603 12.3592C14.7663 9.95253 14.7703 6.04786 12.3596 3.6372ZM13.067 2.93053C10.271 0.132531 5.72897 0.132531 2.93297 2.93053C0.756974 5.10586 0.27564 8.32253 1.47231 10.9639V11.0172C1.46735 11.1242 1.458 11.231 1.44431 11.3372C1.42964 11.4645 1.41097 11.6065 1.38964 11.7619L1.38564 11.7905C1.36364 11.9552 1.34031 12.1332 1.31897 12.3132C1.27831 12.6679 1.24497 13.0545 1.25964 13.3952C1.26697 13.5659 1.28697 13.7419 1.33164 13.9052C1.37564 14.0652 1.45364 14.2492 1.60164 14.3972C1.75031 14.5459 1.93497 14.6232 2.09364 14.6672C2.25697 14.7119 2.43364 14.7319 2.60364 14.7392C2.94364 14.7539 3.33031 14.7205 3.68564 14.6792C3.86564 14.6592 4.04297 14.6352 4.20831 14.6125L4.23697 14.6092C4.39231 14.5885 4.53364 14.5692 4.66097 14.5545C4.79764 14.5385 4.90364 14.5292 4.98164 14.5272H5.03431C7.67631 15.7225 10.8916 15.2425 13.0676 13.0659C15.863 10.2699 15.8683 5.73186 13.067 2.93053Z" fill="#4B4B4B"/>
    </g>
    <defs>
        <clipPath id="clip0_210_1733">
            <rect width="16" height="16" fill="white"/>
        </clipPath>
    </defs>
</svg>
