<svg width="25" height="24" viewBox="0 0 25 24" fill="none" xmlns="http://www.w3.org/2000/svg">
    <path d="M12.7158 15C14.3727 15 15.7158 13.6569 15.7158 12C15.7158 10.3431 14.3727 9 12.7158 9C11.059 9 9.71582 10.3431 9.71582 12C9.71582 13.6569 11.059 15 12.7158 15Z" stroke="#4B5563" stroke-width="1.5" stroke-linecap="round" stroke-linejoin="round"/>
    <path d="M20.3382 10.3954L19.2405 7.7448L20.7158 6L18.7158 4L16.9805 5.48295L14.2736 4.36974L13.6512 2H11.6968L11.0649 4.40113L8.42023 5.51596L6.71582 4L4.71582 6L6.16919 7.78885L5.08832 10.4463L2.71582 11V13L5.11693 13.6555L6.23157 16.2997L4.71582 18L6.71582 20L8.50698 18.5403L11.1128 19.6123L11.7158 22H13.7158L14.3203 19.6132L16.9709 18.5155C17.4127 18.8313 18.7158 20 18.7158 20L20.7158 18L19.2317 16.2494L20.3297 13.598L22.7157 12.9772L22.7158 11L20.3382 10.3954Z" stroke="#4B5563" stroke-width="1.5" stroke-linecap="round" stroke-linejoin="round"/>
</svg>
