<svg width="24" height="24" viewBox="0 0 24 24" fill="none" xmlns="http://www.w3.org/2000/svg">
    <path fill-rule="evenodd" clip-rule="evenodd" d="M19.393 10.8241C19.349 10.6317 19.3826 10.4298 19.4865 10.262C19.5905 10.0943 19.7563 9.97421 19.9481 9.9279C20.1399 9.88159 20.3423 9.91274 20.5113 10.0146C20.6803 10.1165 20.8024 10.2808 20.851 10.4721C21.032 11.2221 21.128 12.0051 21.128 12.8101C21.128 18.2951 16.675 22.7491 11.189 22.7491C5.704 22.7491 1.25 18.2951 1.25 12.8101C1.25 7.32409 5.704 2.87109 11.189 2.87109C11.994 2.87109 12.777 2.96709 13.527 3.14809C13.6238 3.17021 13.7152 3.21132 13.7959 3.26903C13.8767 3.32674 13.9452 3.39991 13.9974 3.48429C14.0497 3.56867 14.0847 3.66259 14.1004 3.7606C14.1161 3.85861 14.1122 3.95876 14.0889 4.05524C14.0656 4.15173 14.0234 4.24263 13.9647 4.32268C13.906 4.40273 13.832 4.47034 13.747 4.52157C13.662 4.57281 13.5677 4.60667 13.4695 4.62118C13.3713 4.63568 13.2712 4.63056 13.175 4.60609C11.9336 4.30609 10.6403 4.29167 9.39248 4.56392C8.14468 4.83616 6.97491 5.38797 5.97126 6.17779C4.96762 6.96761 4.15626 7.97486 3.59829 9.12368C3.04032 10.2725 2.75027 11.5329 2.75 12.8101C2.75 17.4681 6.531 21.2491 11.189 21.2491C12.4662 21.2488 13.7266 20.9588 14.8754 20.4008C16.0242 19.8428 17.0315 19.0315 17.8213 18.0278C18.6111 17.0242 19.1629 15.8544 19.4352 14.6066C19.7074 13.3588 19.693 12.0655 19.393 10.8241Z" fill="#00428A"/>
    <path fill-rule="evenodd" clip-rule="evenodd" d="M14.7642 12.8108C14.7642 12.6119 14.8433 12.4212 14.9839 12.2805C15.1246 12.1398 15.3153 12.0608 15.5142 12.0608C15.7131 12.0608 15.9039 12.1398 16.0446 12.2805C16.1852 12.4212 16.2642 12.6119 16.2642 12.8108C16.2642 15.6108 13.9902 17.8848 11.1892 17.8848C9.84377 17.884 8.55364 17.3492 7.60225 16.3978C6.65087 15.4464 6.11603 14.1563 6.11523 12.8108C6.11576 11.4652 6.65048 10.1748 7.6019 9.2232C8.55332 8.2716 9.8436 7.73662 11.1892 7.73583C11.3881 7.73583 11.5789 7.81485 11.7196 7.9555C11.8602 8.09615 11.9392 8.28692 11.9392 8.48583C11.9392 8.68474 11.8602 8.87551 11.7196 9.01616C11.5789 9.15681 11.3881 9.23583 11.1892 9.23583C10.4822 9.23583 9.79098 9.4455 9.20307 9.83832C8.61516 10.2312 8.15695 10.7895 7.88637 11.4427C7.61578 12.096 7.54498 12.8148 7.68293 13.5083C7.82087 14.2018 8.16136 14.8388 8.66133 15.3387C9.1613 15.8387 9.7983 16.1792 10.4918 16.3171C11.1853 16.4551 11.9041 16.3843 12.5573 16.1137C13.2106 15.8431 13.7689 15.3849 14.1617 14.797C14.5546 14.2091 14.7642 13.5179 14.7642 12.8108ZM22.5302 5.58783L19.4732 8.64583C19.4035 8.71561 19.3208 8.77096 19.2296 8.80871C19.1385 8.84646 19.0409 8.86587 18.9422 8.86583H15.8842C15.6853 8.86583 15.4946 8.78681 15.3539 8.64616C15.2133 8.50551 15.1342 8.31474 15.1342 8.11583V5.05783C15.1342 4.9592 15.1536 4.86153 15.1913 4.77042C15.2291 4.6793 15.2845 4.59652 15.3542 4.52683L18.4122 1.46983C18.5026 1.37939 18.6146 1.31356 18.7376 1.27859C18.8606 1.24362 18.9905 1.24068 19.1149 1.27004C19.2394 1.2994 19.3542 1.36008 19.4486 1.44633C19.543 1.53258 19.6138 1.64153 19.6542 1.76283L20.3002 3.69983L22.2372 4.34583C22.3585 4.38626 22.4675 4.45703 22.5537 4.55142C22.64 4.64582 22.7007 4.76069 22.73 4.88513C22.7594 5.00958 22.7564 5.13946 22.7215 5.26245C22.6865 5.38544 22.6207 5.49744 22.5302 5.58783ZM20.6122 5.38583L19.4702 5.00483C19.3597 4.96782 19.2593 4.90566 19.1768 4.82323C19.0944 4.7408 19.0322 4.64037 18.9952 4.52983L18.6142 3.38783L16.6342 5.36783V7.36583H18.6322L20.6122 5.38583Z" fill="#00428A"/>
    <path fill-rule="evenodd" clip-rule="evenodd" d="M15.3534 7.58302C15.4231 7.51336 15.5058 7.45809 15.5968 7.42039C15.6878 7.38269 15.7854 7.36328 15.8839 7.36328C15.9824 7.36328 16.08 7.38269 16.171 7.42039C16.262 7.45809 16.3447 7.51336 16.4144 7.58302C16.4841 7.65269 16.5393 7.73539 16.577 7.82642C16.6147 7.91744 16.6341 8.015 16.6341 8.11352C16.6341 8.21205 16.6147 8.3096 16.577 8.40063C16.5393 8.49165 16.4841 8.57436 16.4144 8.64402L11.8274 13.23C11.7578 13.2996 11.6752 13.3548 11.5842 13.3925C11.4933 13.4302 11.3958 13.4496 11.2974 13.4496C11.199 13.4496 11.1015 13.4302 11.0106 13.3925C10.9196 13.3548 10.837 13.2996 10.7674 13.23C10.6978 13.1604 10.6426 13.0778 10.6049 12.9869C10.5672 12.8959 10.5479 12.7985 10.5479 12.7C10.5479 12.6016 10.5672 12.5041 10.6049 12.4132C10.6426 12.3223 10.6978 12.2396 10.7674 12.17L15.3534 7.58302Z" fill="#00428A"/>
</svg>
